<?xml version="1.0" standalone="no"?><!DOCTYPE svg PUBLIC "-//W3C//DTD SVG 1.1//EN" "http://www.w3.org/Graphics/SVG/1.1/DTD/svg11.dtd"><svg t="1520158620169" class="icon" style="" viewBox="0 0 1024 1024" version="1.1" xmlns="http://www.w3.org/2000/svg" p-id="518" xmlns:xlink="http://www.w3.org/1999/xlink" width="12" height="12"><defs><style type="text/css"></style></defs><path d="M406.5 305.5q8 0 13.75-5.75t5.75-13.75-5.75-13.75-13.75-5.75-13.5 5.75-5.5 13.75 5.5 13.75 13.5 5.75zm211 0q8 0 13.5-5.75t5.5-13.75-5.5-13.75-13.5-5.75-13.75 5.75-5.75 13.75 5.75 13.75 13.75 5.75zm-406 92q21 0 36 15t15 36l0 215q0 21.5-14.75 36.5t-36.25 15-36.5-15-15-36.5l0-215q0-21 15-36t36.5-15zm530 9.5l0 333q0 23-16 39t-38.5 16l-37.5 0 0 113.5q0 21.5-15 36.5t-36.5 15-36.5-15-15-36.5l0-113.5-69 0 0 113.5q0 21.5-15 36.5t-36.5 15q-21 0-36-15t-15-36.5l-0.5-113.5-37 0q-23 0-39-16t-16-39l0-333 459 0zm-116-202.5q53.5 27.5 85.5 76.75t32 107.75l-462.5 0q0-58.5 32-107.75t86-76.75l-35.5-65.5q-3.5-6.5 2.5-10 6.5-3 10 3l36 66q47.5-21 100.5-21t100.5 21l36-66q3.5-6 10-3 6 3.5 2.5 10zm238.5 244l0 215q0 21.5-15 36.5t-36.5 15q-21 0-36-15t-15-36.5l0-215q0-21.5 15-36.25t36-14.75q21.5 0 36.5 14.75t15 36.25z" p-id="519" fill="#1afa29"></path></svg>